# xmcd
#
# Track frame offsets:
#	150
#	21040
#	41062
#	60892
#	80995
#	101465
#	122972
#	140637
#	161087
#	178365
#
# Disc length: 2594 seconds
#
# Revision: 1
# Processed by: cddbd v1.5.1PL0 Copyright (c) Steve Scherf et al.
# Submitted via: CDex 1.50Beta5
#
DISCID=8c0a200a
DTITLE=チューリップ - Jack is a boy
DYEAR=1993
DGENRE=
TTITLE0=Promised land,The
TTITLE1=愛の風
TTITLE2=1秒が愛
TTITLE3=ジンク・ホワイト
TTITLE4=チャイニーズ・ドレス
TTITLE5=Dear my friend
TTITLE6=くちづけのネックレス
TTITLE7=無邪気な夜
TTITLE8=Jack is boy
TTITLE9=くちづけのネックレス
EXTD=
EXTT0=
EXTT1=
EXTT2=
EXTT3=
EXTT4=
EXTT5=
EXTT6=
EXTT7=
EXTT8=
EXTT9=
PLAYORDER=
